<?xml version="1.0" encoding="UTF-8"?> <svg xmlns="http://www.w3.org/2000/svg" width="246" height="87" viewBox="0 0 246 87" fill="none"> <g clip-path="url(#clip0_202_1772)"> <path fill-rule="evenodd" clip-rule="evenodd" d="M109.203 14.5904C108.016 14.5904 106.855 14.9435 105.868 15.6051C104.881 16.2667 104.112 17.207 103.658 18.3071C103.204 19.4071 103.085 20.6175 103.317 21.7851C103.55 22.9526 104.122 24.0249 104.962 24.8663C105.802 25.7076 106.872 26.2802 108.036 26.5116C109.201 26.743 110.407 26.6228 111.504 26.1662C112.6 25.7095 113.537 24.9371 114.195 23.9465C114.854 22.9559 115.205 21.7916 115.203 20.6011C115.201 19.0063 114.568 17.4775 113.443 16.3504C112.318 15.2234 110.793 14.5904 109.203 14.5904ZM109.203 22.7623C108.772 22.7623 108.351 22.6343 107.993 22.3944C107.635 22.1546 107.356 21.8136 107.191 21.4147C107.026 21.0158 106.984 20.5768 107.068 20.1534C107.151 19.7299 107.359 19.3409 107.663 19.0356C107.968 18.7303 108.355 18.5224 108.778 18.4381C109.2 18.3539 109.638 18.3971 110.035 18.5624C110.433 18.7276 110.773 19.0074 111.012 19.3664C111.251 19.7254 111.379 20.1475 111.379 20.5793C111.379 21.1583 111.15 21.7135 110.742 22.1229C110.333 22.5323 109.78 22.7623 109.203 22.7623Z" fill="#28283B"></path> <path fill-rule="evenodd" clip-rule="evenodd" d="M64.8322 72.7692C63.4837 73.773 62.0675 74.6825 60.5943 75.4904C59.5595 74.6938 58.2934 74.2571 56.9884 74.2463C55.6836 74.2362 54.4109 74.6526 53.3632 75.4329C52.3155 76.2126 51.5499 77.3146 51.1826 78.57C50.8151 79.8259 50.866 81.1676 51.3273 82.3914C51.7886 83.6158 52.6353 84.6556 53.739 85.3541C54.8427 86.0526 56.1432 86.3709 57.4437 86.2608C58.7442 86.1514 59.9731 85.6193 60.9453 84.7459C61.9168 83.8731 62.5787 82.7057 62.8292 81.421C64.0411 81.1304 67.5094 78.7071 68.6339 77.8991C73.1809 74.5324 77.0222 70.3002 79.938 65.4445C82.8539 60.5888 84.7875 55.2046 85.6288 49.5994C86.4695 43.9942 86.2015 38.2777 84.8389 32.7765C83.4768 27.2753 81.0473 22.097 77.6896 17.5375C69.2873 6.13458 55.5008 -0.749334 41.308 0.0729512C37.8759 0.0074589 37.3607 5.33414 40.3575 5.52334C53.8101 6.38927 63.5768 9.07445 72.5738 21.336C77.0436 27.3942 79.5414 34.6869 79.7287 42.2207C79.8066 48.1277 78.5004 53.9705 75.9157 59.2787C73.3305 64.5875 69.5395 69.2129 64.8463 72.7833L64.8322 72.7692ZM40.9017 80.2062V46.9652C40.8998 43.4757 39.5172 40.1297 37.0576 37.6616C34.5979 35.1936 31.2623 33.8052 27.7829 33.8013H22.7037C23.3362 37.4761 25.2423 40.8089 28.0858 43.2119C30.9293 45.6149 34.5276 46.9339 38.246 46.9361H38.7975V52.2846H38.246C32.6541 52.2769 27.2934 50.0457 23.3394 46.0802C19.3853 42.1148 17.1605 36.7387 17.1528 31.1307V28.4601H27.7683C32.5474 28.4664 37.1379 30.3306 40.5749 33.6608C44.0119 36.991 46.0277 41.5278 46.1986 46.3176V46.987C47.9109 45.2405 49.9527 43.8533 52.205 42.9063C54.4573 41.9593 56.875 41.4715 59.3175 41.4711H69.9327V44.149C69.9429 49.3875 68.0099 54.4424 64.5094 58.3308C61.009 62.2189 56.192 64.6625 50.9948 65.1867L50.4578 65.2448L49.9136 59.9326L50.4651 59.8745C53.8912 59.5298 57.1091 58.0651 59.6239 55.7063C62.1386 53.3474 63.8104 50.2249 64.3819 46.8197H59.3028C55.8247 46.8235 52.4901 48.2109 50.0307 50.6774C47.5713 53.1439 46.1879 56.4881 46.1841 59.9761V83.6699C46.1841 84.9942 45.7632 86.1514 44.0653 86.3257C29.5533 86.1802 17.2181 80.7738 8.41659 68.8174C5.05856 64.2591 2.62881 59.0818 1.26614 53.5815C-0.0965186 48.0811 -0.365418 42.3654 0.474814 36.7608C1.31505 31.1562 3.24795 25.7725 6.16315 20.9172C9.0783 16.0618 12.9187 11.8299 17.4648 8.46317C18.8602 7.43155 20.3138 6.48152 21.8185 5.61794C22.0869 4.34323 22.7605 3.1903 23.7381 2.33239C24.7158 1.47447 25.9446 0.957894 27.24 0.860279C28.5354 0.762657 29.8275 1.08927 30.922 1.79104C32.0165 2.49282 32.8543 3.53184 33.3097 4.752C33.765 5.97214 33.8132 7.30759 33.4471 8.55757C33.0809 9.80754 32.3202 10.9046 31.2791 11.6839C30.2381 12.4633 28.973 12.8827 27.6739 12.8793C26.3749 12.8759 25.112 12.4498 24.0751 11.665C23.1318 12.2399 22.174 12.8803 21.2234 13.5861C16.858 16.8119 13.2619 20.9702 10.695 25.7604C10.071 26.932 6.45022 36.7193 6.34138 42.4972C6.17155 50.6046 8.69052 58.539 13.503 65.0558C21.3976 75.7669 29.9089 77.9719 40.4953 80.1407L40.9017 80.2062ZM58.2652 82.0179C57.9205 82.2797 57.5058 82.4326 57.0736 82.4569C56.642 82.4817 56.2125 82.3762 55.8405 82.155C55.4685 81.9333 55.1707 81.606 54.9851 81.2139C54.7995 80.8223 54.7346 80.3839 54.7985 79.9551C54.8623 79.5257 55.0523 79.1257 55.344 78.8052C55.6357 78.4848 56.0159 78.2591 56.436 78.1564C56.8564 78.0537 57.2976 78.0791 57.7038 78.2286C58.1095 78.3787 58.4616 78.6467 58.7149 78.9982C59.0489 79.4603 59.1883 80.0358 59.1042 80.6C59.0201 81.1642 58.7188 81.6737 58.2652 82.0179ZM26.484 5.13766C26.1331 5.39115 25.8654 5.74375 25.7151 6.15044C25.5648 6.55713 25.5387 6.99953 25.6401 7.42117C25.7416 7.84276 25.9659 8.22457 26.2846 8.51779C26.6033 8.81096 27.0019 9.00234 27.4295 9.06745C27.8571 9.13257 28.2943 9.06841 28.6854 8.88329C29.0765 8.69812 29.4038 8.40032 29.6254 8.02788C29.8471 7.65544 29.953 7.22522 29.9299 6.79212C29.9067 6.35897 29.7554 5.94263 29.4953 5.59611C29.1529 5.13993 28.6458 4.83647 28.0829 4.75077C27.52 4.66507 26.946 4.80396 26.484 5.13766Z" fill="#28283B"></path> <path d="M105.792 60.3327H110.146C110.796 60.3327 111.421 60.0737 111.88 59.6127C112.34 59.1512 112.599 58.5255 112.599 57.8732V32.295H105.778L105.792 60.3327Z" fill="#28283B"></path> <path d="M151.846 23.0879V18.4452H122.786C122.525 18.4452 122.276 18.5484 122.091 18.7325C121.905 18.9165 121.801 19.1664 121.799 19.4276V60.331H126.697C127.347 60.331 127.971 60.072 128.431 59.6105C128.891 59.1495 129.149 58.5238 129.149 57.8715V44.7729H141.231C141.881 44.7729 142.505 44.5139 142.964 44.0525C143.425 43.5913 143.683 42.9657 143.683 42.3134V37.6707H129.171V25.5547H149.386C149.709 25.5547 150.028 25.4908 150.326 25.3668C150.624 25.2427 150.895 25.0609 151.123 24.8318C151.351 24.6026 151.532 24.3306 151.654 24.0313C151.777 23.7321 151.84 23.4115 151.838 23.0879" fill="#28283B"></path> <path d="M163.173 32.295C154.698 32.295 148.784 38.313 148.784 46.9288C148.784 54.9334 154.03 60.362 161.845 60.362C164.022 60.362 167.976 59.7069 170.472 56.8616V57.9026C170.472 58.2259 170.536 58.5463 170.66 58.8454C170.784 59.1444 170.965 59.4158 171.193 59.6443C171.422 59.8728 171.693 60.0539 171.992 60.1769C172.29 60.2999 172.609 60.3631 172.932 60.362H177.286V46.9943C177.286 37.9273 171.873 32.295 163.166 32.295H163.173ZM163.166 54.6132C159.705 54.6132 155.663 52.5466 155.663 46.7324C155.663 40.9181 159.705 38.8733 163.166 38.8733C165.894 38.8733 170.465 39.9212 170.465 46.9288C170.465 52.0227 168.013 54.6132 163.166 54.6132Z" fill="#28283B"></path> <path d="M196.152 32.2955C188.838 32.2955 184.673 36.5452 184.673 44.0113V60.3332H189.027C189.35 60.3343 189.669 60.2711 189.967 60.1481C190.266 60.0251 190.537 59.844 190.766 59.6155C190.994 59.387 191.175 59.1156 191.299 58.8166C191.423 58.5175 191.486 58.1971 191.486 57.8738V44.0113C191.486 40.6057 193.228 38.8738 196.674 38.8738C197.591 38.876 198.505 38.9859 199.396 39.2012C199.648 39.2603 199.913 39.2169 200.133 39.0806C200.353 38.9442 200.51 38.726 200.571 38.4736L201.95 33.3215C200.074 32.6949 198.12 32.3396 196.145 32.2664" fill="#28283B"></path> <path d="M233.73 32.2955C230.001 32.2955 226.728 33.7509 224.863 36.1522C222.941 33.729 219.675 32.2955 216.004 32.2955C208.436 32.2955 203.727 37.0909 203.727 44.8045V60.3332H208.08C208.403 60.3343 208.723 60.2711 209.021 60.1481C209.32 60.0251 209.591 59.844 209.819 59.6155C210.048 59.387 210.229 59.1156 210.353 58.8166C210.476 58.5175 210.54 58.1971 210.54 57.8738V44.7753C210.54 40.7876 212.325 38.8447 215.989 38.8447C219.508 38.8447 221.294 40.6566 221.439 44.3824V60.3332H225.792C226.115 60.3343 226.435 60.2711 226.733 60.1481C227.031 60.0251 227.303 59.844 227.531 59.6155C227.76 59.387 227.941 59.1156 228.065 58.8166C228.188 58.5175 228.252 58.1971 228.252 57.8738V44.426C228.397 40.6348 230.131 38.8738 233.701 38.8738C237.271 38.8738 239.151 40.8167 239.151 44.8045V60.3332H243.504C243.827 60.3343 244.146 60.2711 244.445 60.1481C244.743 60.0251 245.015 59.844 245.243 59.6155C245.472 59.387 245.653 59.1156 245.776 58.8166C245.9 58.5175 245.964 58.1971 245.964 57.8738V44.7753C245.964 37.0618 241.255 32.2664 233.687 32.2664" fill="#28283B"></path> </g> <defs> <clipPath id="clip0_202_1772"> <rect width="246" height="86.3257" fill="white"></rect> </clipPath> </defs> </svg> 