<?xml version="1.0" encoding="UTF-8"?> <svg xmlns="http://www.w3.org/2000/svg" width="5288" height="1022" viewBox="0 0 5288 1022" fill="none"><path d="M997.684 510.93C997.684 793.333 774.184 1021.61 497.69 1021.61C223.5 1019.26 0 790.98 0 510.93C0 228.528 223.5 0.251953 499.994 0.251953C774.184 0.251953 997.684 228.528 997.684 510.93Z" fill="#FFD601"></path><path d="M447.024 675.807V367.518C398.637 369.871 359.467 383.991 331.818 412.231C304.168 440.472 290.343 475.772 290.343 522.839C290.343 567.553 304.168 605.207 331.818 633.447C359.467 656.981 398.637 673.454 447.024 675.807ZM700.478 520.486C700.478 473.419 686.653 438.118 659.003 409.878C631.354 381.638 592.184 367.518 543.797 365.164V673.454C592.184 671.101 629.05 656.981 659.003 628.74C686.653 602.853 700.478 567.553 700.478 520.486ZM444.72 760.528C366.379 758.175 304.168 736.995 255.781 692.281C209.699 649.921 186.658 593.44 186.658 520.486C186.658 449.885 209.699 391.051 255.781 348.691C301.864 306.33 366.379 282.797 444.72 280.443V223.963H543.797V282.797C622.137 285.15 684.349 306.33 732.735 351.044C778.818 393.405 801.859 449.885 801.859 522.839C801.859 593.44 778.818 652.274 732.735 694.634C686.653 736.995 624.441 760.528 543.797 762.882V824.069H444.72V760.528Z" fill="#232323"></path><path d="M1076.01 847.421L804.123 878.015L953.891 565.019L1076.01 847.421Z" fill="#FFD601"></path><path d="M1578.37 341.448C1534.59 343.801 1500.03 357.921 1476.99 381.455C1451.64 404.988 1440.12 433.229 1440.12 466.176C1440.12 499.123 1451.64 527.363 1476.99 553.25C1502.33 576.783 1536.9 588.55 1578.37 590.903V341.448ZM1682.05 244.96C1721.22 247.313 1753.48 254.373 1783.44 266.14C1813.39 277.907 1838.73 294.38 1859.47 313.207C1880.21 332.034 1896.34 355.568 1907.86 381.455C1919.38 407.342 1923.99 435.582 1923.99 466.176C1923.99 496.769 1919.38 525.009 1907.86 550.896C1896.34 576.783 1880.21 600.317 1859.47 619.144C1838.73 637.971 1813.39 654.444 1783.44 666.211C1753.48 677.978 1718.92 685.038 1682.05 687.391V757.992H1578.37V687.391C1539.2 685.038 1506.94 677.978 1476.99 666.211C1447.03 654.444 1421.69 637.971 1400.95 619.144C1380.22 600.317 1364.09 576.783 1352.57 550.896C1341.05 525.009 1336.44 496.769 1336.44 466.176C1336.44 435.582 1341.05 407.342 1352.57 381.455C1364.09 355.568 1380.22 332.034 1400.95 313.207C1421.69 294.38 1447.03 277.907 1476.99 266.14C1506.94 254.373 1541.5 247.313 1578.37 244.96V190.833H1682.05V244.96ZM1682.05 588.55C1725.83 586.197 1760.39 574.43 1783.44 550.896C1808.78 527.363 1820.3 499.123 1820.3 463.822C1820.3 430.875 1808.78 402.635 1783.44 379.101C1758.09 355.568 1725.83 341.448 1682.05 339.094V588.55ZM2345.64 346.154V753.285H2246.56V496.769L2076.06 753.285H1981.59V346.154H2080.67V602.67L2248.87 346.154H2345.64ZM2785.73 346.154V753.285H2686.65V593.257H2525.36V753.285H2426.28V346.154H2525.36V496.769H2686.65V346.154H2785.73ZM3032.27 341.448C3055.31 341.448 3076.05 346.154 3094.48 353.214C3112.91 360.274 3129.04 372.041 3142.87 386.161C3156.69 400.282 3168.21 416.755 3175.12 435.582C3184.34 454.409 3186.64 475.589 3186.64 499.123V753.285H3112.91L3094.48 713.278C3085.26 722.691 3076.05 729.752 3064.53 734.458C3055.31 741.518 3043.79 746.225 3029.96 750.932C3016.14 755.638 3000.01 757.992 2983.88 757.992C2940.1 757.992 2907.85 746.225 2884.8 725.045C2861.76 703.865 2850.24 675.624 2850.24 642.677C2850.24 621.497 2854.85 605.024 2861.76 588.55C2870.98 572.077 2882.5 557.956 2900.93 546.19C2919.37 534.423 2944.71 525.009 2974.66 517.949C3004.62 510.889 3043.79 506.183 3089.87 506.183C3089.87 482.649 3082.96 466.176 3071.44 454.409C3059.92 442.642 3043.79 435.582 3025.36 435.582C3011.53 435.582 3002.31 437.935 2993.1 442.642C2986.19 447.349 2979.27 452.055 2974.66 456.762C2970.06 463.822 2965.45 470.882 2963.14 477.942H2864.07C2866.37 459.115 2870.98 440.289 2880.2 423.815C2889.41 407.342 2900.93 393.221 2914.76 381.455C2928.58 369.688 2947.02 360.274 2965.45 353.214C2983.88 346.154 3006.92 341.448 3032.27 341.448ZM3002.31 677.978C3027.66 677.978 3048.4 670.918 3064.53 654.444C3080.65 637.971 3089.87 619.144 3089.87 593.257V574.43C3059.92 574.43 3036.88 576.783 3018.44 579.137C3000.01 581.49 2986.19 586.197 2976.97 590.903C2967.75 595.61 2960.84 602.67 2956.23 609.73C2951.62 616.79 2951.62 623.85 2951.62 633.264C2951.62 645.031 2956.23 654.444 2965.45 663.858C2974.66 673.271 2986.19 677.978 3002.31 677.978ZM3624.43 346.154V753.285H3525.35V593.257H3364.06V753.285H3264.98V346.154H3364.06V496.769H3525.35V346.154H3624.43ZM4069.12 602.67C4064.51 623.85 4057.6 642.677 4046.08 661.504C4034.56 680.331 4020.73 696.805 4004.61 710.925C3988.48 725.045 3970.04 736.812 3949.31 746.225C3928.57 755.639 3905.53 757.992 3882.49 757.992C3854.84 757.992 3829.49 753.285 3804.15 741.518C3781.11 729.752 3760.37 715.631 3741.94 696.805C3723.5 677.978 3709.68 656.797 3698.16 630.911C3686.64 605.024 3682.03 579.137 3682.03 548.543C3682.03 520.303 3686.64 492.062 3698.16 468.529C3709.68 442.642 3723.5 421.462 3741.94 402.635C3760.37 383.808 3781.11 369.688 3804.15 357.921C3829.49 346.154 3854.84 341.448 3882.49 341.448C3905.53 341.448 3928.57 346.154 3949.31 355.568C3970.04 364.981 3988.48 374.395 4004.61 390.868C4020.73 404.988 4034.56 421.462 4046.08 440.289C4057.6 459.115 4064.51 477.942 4069.12 496.769H3970.04C3965.44 485.002 3958.52 475.589 3951.61 468.529C3944.7 461.469 3935.48 454.409 3923.96 449.702C3912.44 442.642 3898.62 440.289 3882.49 440.289C3854.84 440.289 3829.49 449.702 3811.06 470.882C3792.63 492.062 3783.41 517.949 3783.41 550.896C3783.41 583.843 3792.63 612.084 3811.06 630.911C3829.49 652.091 3854.84 661.504 3882.49 661.504C3898.62 661.504 3912.44 659.151 3923.96 652.091C3935.48 645.031 3944.7 640.324 3951.61 633.264C3960.83 623.85 3965.44 614.437 3970.04 605.024H4069.12V602.67ZM4488.47 346.154V753.285H4389.39V496.769L4221.19 753.285H4124.42V346.154H4223.5V602.67L4391.7 346.154H4488.47ZM4935.47 602.67C4930.86 623.85 4923.95 642.677 4912.43 661.504C4900.91 680.331 4887.08 696.805 4870.95 710.925C4854.83 725.045 4836.39 736.812 4815.66 746.225C4794.92 755.639 4771.88 757.992 4748.84 757.992C4721.19 757.992 4695.84 753.285 4670.5 741.518C4647.45 729.752 4626.72 715.631 4608.29 696.805C4589.85 677.978 4576.03 656.797 4564.51 630.911C4552.99 605.024 4548.38 579.137 4548.38 548.543C4548.38 520.303 4552.99 492.062 4564.51 468.529C4576.03 442.642 4589.85 421.462 4608.29 402.635C4626.72 383.808 4647.45 369.688 4670.5 357.921C4695.84 346.154 4721.19 341.448 4748.84 341.448C4771.88 341.448 4794.92 346.154 4815.66 355.568C4836.39 364.981 4854.83 374.395 4870.95 390.868C4887.08 404.988 4900.91 421.462 4912.43 440.289C4923.95 459.115 4930.86 477.942 4935.47 496.769H4836.39C4831.78 485.002 4824.87 475.589 4817.96 468.529C4811.05 461.469 4801.83 454.409 4790.31 449.702C4778.79 442.642 4764.96 440.289 4748.84 440.289C4721.19 440.289 4695.84 449.702 4677.41 470.882C4658.98 492.062 4649.76 517.949 4649.76 550.896C4649.76 583.843 4658.98 612.084 4677.41 630.911C4695.84 652.091 4721.19 661.504 4748.84 661.504C4764.96 661.504 4778.79 659.151 4790.31 652.091C4801.83 645.031 4811.05 640.324 4817.96 633.264C4827.18 623.85 4831.78 614.437 4836.39 605.024H4935.47V602.67ZM4953.9 346.154H5288V442.642H5170.49V753.285H5071.41V442.642H4953.9V346.154Z" fill="#FFD601"></path></svg> 