<?xml version="1.0" encoding="UTF-8"?> <svg xmlns="http://www.w3.org/2000/svg" width="145" height="121" viewBox="0 0 145 121" fill="none"> <path fill-rule="evenodd" clip-rule="evenodd" d="M60.5002 1.18342C63.7496 0.512709 67.0496 0.116839 70.3654 0C71.9013 0 73.4322 0 74.9681 0C76.8011 0.15611 78.6493 0.191361 80.4672 0.503581C81.9125 0.679834 83.3477 0.921553 84.7728 1.21867C84.9757 1.27772 85.1828 1.32149 85.3922 1.3496C90.6979 2.51286 95.8255 4.37561 100.641 6.88899C107.102 10.2591 112.903 14.768 117.762 20.1986C121.551 24.4244 124.712 29.1731 127.149 34.2989C127.784 35.5981 128.358 36.9628 129.345 38.0405C130.523 39.2139 132.17 39.7174 133.786 39.9038C136.093 40.1556 138.389 40.4476 140.696 40.6894C140.696 41.3641 140.721 42.0339 140.696 42.7037C135.222 42.6684 129.748 42.7037 124.274 42.7037C123.214 39.5641 121.865 36.5297 120.245 33.6392C119.49 32.345 118.734 31.0407 117.873 29.8271C116.314 27.4964 114.568 25.2968 112.651 23.2503C107.968 18.2176 102.382 14.1079 96.184 11.1342C94.2218 10.1936 92.2037 9.37456 90.141 8.68174C87.4557 7.7707 84.7049 7.06533 81.9125 6.57173C82.1156 6.47997 82.3262 6.40584 82.542 6.35016C82.4091 6.32 82.271 6.32161 82.1389 6.35486C82.0067 6.38811 81.8843 6.45206 81.7816 6.54152C77.8328 5.88413 73.8248 5.65283 69.8265 5.85161C56.7674 6.4585 44.3572 11.7213 34.8428 20.6871C33.6946 21.654 32.7328 22.8173 31.6904 23.8798C30.6177 25.0934 29.5955 26.3524 28.5984 27.6315C27.4401 29.2883 26.2567 30.9299 25.2546 32.6925C25.1216 32.9705 24.9522 33.2296 24.751 33.463C23.1339 36.4299 21.7613 39.5238 20.6468 42.7137C15.1779 42.6802 9.70736 42.6802 4.23512 42.7137C4.23512 42.049 4.19483 41.3843 4.23512 40.6994C6.61705 40.3872 9.0141 40.1958 11.396 39.8484C12.5145 39.7333 13.5976 39.3906 14.5787 38.8412C15.5841 38.1644 16.3769 37.2162 16.8649 36.1068C17.5548 34.8277 18.1289 33.5133 18.8088 32.2292C20.31 29.418 22.022 26.7245 23.9302 24.1719C26.6775 20.5219 29.8337 17.1985 33.3371 14.2665C41.055 7.77519 50.2612 3.29753 60.1326 1.23377L60.5002 1.18342ZM0 52.0602C1.61146 52.0602 3.22292 52.0602 4.83438 52.0602C7.22135 54.5126 9.66876 56.9198 12.0658 59.3672C12.4485 59.7801 12.8615 60.1628 13.2391 60.5808C13.6168 60.9988 14.0298 61.3765 14.4276 61.7693C14.8254 62.162 15.2132 62.5649 15.606 62.9627C16.1398 63.4663 16.6484 64.0203 17.1721 64.5541L17.2678 64.4735C17.2074 60.334 17.2678 56.1946 17.2678 52.0552C18.5066 52.0552 19.7404 52.0552 20.9792 52.0552C20.9792 57.6718 20.9792 63.2867 20.9792 68.9C19.408 68.8647 17.8268 68.9352 16.2556 68.8647C12.1162 64.7152 7.96162 60.5909 3.8675 56.4011L3.7265 56.4514C3.76679 60.5858 3.7265 64.7202 3.75671 68.8546C2.50783 68.9503 1.23881 68.8546 0.00503581 68.9C0.00503581 63.285 0.00503581 57.6651 0.00503581 52.0501L0 52.0602ZM29.2077 52.0602C30.4314 52.0602 31.6551 52.0602 32.8838 52.0602C32.8838 52.2415 32.9191 52.4228 32.9342 52.6041C32.8687 56.6629 32.9342 60.7218 32.909 64.7807C32.909 65.8231 32.8637 66.8655 32.9392 67.9079C32.8889 68.2352 32.9392 68.5626 32.9392 68.8899C31.6904 68.8899 30.4213 68.9251 29.1976 68.8899C29.248 63.285 29.1976 57.6852 29.2278 52.0804L29.2077 52.0602ZM43.3332 52.4278C44.0935 52.1571 44.8985 52.034 45.705 52.0652C50.6502 52.0652 55.5903 52.0652 60.5304 52.0652C60.5304 53.2084 60.5002 54.3465 60.5304 55.4896C55.4141 55.4896 50.2926 55.4896 45.1712 55.4896C44.8635 55.6533 44.5761 55.8527 44.3151 56.0838C44.1568 56.323 44.0605 56.5979 44.035 56.8837C44.0095 57.1694 44.0556 57.457 44.1691 57.7205C44.4662 58.5212 45.418 58.6118 46.1834 58.6269C49.5977 58.6269 53.017 58.6269 56.4313 58.6269C57.3812 58.549 58.3336 58.7447 59.1758 59.1909C60.5657 59.8758 61.3563 61.3613 61.6484 62.8318C61.841 64.2119 61.5396 65.6157 60.7973 66.795C60.3508 67.4571 59.744 67.9955 59.0335 68.36C58.3229 68.7245 57.5317 68.9033 56.7334 68.8798C51.4056 68.91 46.0726 68.8798 40.7447 68.8798C40.7447 67.7367 40.7447 66.5936 40.7447 65.4504H55.9831C56.3244 65.4301 56.6623 65.371 56.9903 65.2742C57.1212 65.1785 57.2521 65.0828 57.3881 64.9922C57.6607 64.7032 57.8364 64.3363 57.8905 63.9427C57.9447 63.5491 57.8747 63.1485 57.6902 62.7966C57.4714 62.5246 57.1884 62.3113 56.8667 62.176C56.5449 62.0406 56.1946 61.9874 55.8471 62.021C52.3221 62.021 48.8272 62.021 45.3223 62.021C44.059 62.0687 42.8257 61.6288 41.8778 60.7923C41.2495 60.2286 40.7835 59.507 40.5282 58.7024C40.2939 58.0029 40.21 57.2618 40.282 56.5276C40.3541 55.7935 40.5804 55.0828 40.9462 54.4421C41.4953 53.506 42.3564 52.7929 43.3785 52.4278H43.3332ZM69.333 53.8177C69.8479 53.2347 70.4872 52.775 71.2037 52.4725C71.9203 52.17 72.6956 52.0326 73.4725 52.0703C78.5083 52.0703 83.5189 52.0703 88.5396 52.0703C88.5396 53.2134 88.5396 54.3565 88.5396 55.4946C83.6096 55.4946 78.6845 55.4946 73.7595 55.4946C73.5469 55.4727 73.332 55.4939 73.1278 55.5571C72.9235 55.6203 72.7342 55.7241 72.5711 55.8622C72.4085 55.9955 72.2748 56.1603 72.1779 56.3468C72.081 56.5333 72.0231 56.7375 72.0075 56.9471C71.992 57.1567 72.0192 57.3672 72.0875 57.5659C72.1558 57.7647 72.2638 57.9474 72.4049 58.1032C72.7725 58.5463 73.412 58.5765 73.9156 58.6068C77.2292 58.6068 80.5478 58.6068 83.8614 58.6068C84.6019 58.5576 85.3457 58.6101 86.0721 58.7629C87.1917 59.0345 88.1658 59.7224 88.7964 60.6866C89.4301 61.7376 89.7287 62.9565 89.6525 64.1814C89.5535 65.0169 89.299 65.8265 88.9022 66.5684C88.5095 67.2162 87.967 67.7601 87.3202 68.1545C86.6735 68.5488 85.9415 68.7821 85.1858 68.8345C83.4585 68.9251 81.7262 68.8345 79.9989 68.8748C76.217 68.8748 72.4452 68.9251 68.6582 68.8446C68.6885 67.7115 68.6582 66.5734 68.6582 65.4404C73.825 65.4404 78.9867 65.4404 84.1534 65.4404C84.4619 65.4263 84.7618 65.3351 85.0258 65.1749C85.2898 65.0148 85.5093 64.7909 85.6642 64.5238C85.7694 64.2753 85.8237 64.0082 85.8237 63.7383C85.8237 63.4683 85.7694 63.2012 85.6642 62.9527C85.4977 62.6552 85.2505 62.4108 84.9511 62.2477C84.6518 62.0846 84.3124 62.0096 83.9721 62.0311C80.3816 62.0311 76.7911 62.0311 73.1955 62.0311C72.455 62.0589 71.718 61.9162 71.0414 61.6141C70.3647 61.312 69.7665 60.8586 69.2928 60.2887C68.5674 59.3691 68.1729 58.232 68.1729 57.0608C68.1729 55.8895 68.5674 54.7524 69.2928 53.8328L69.333 53.8177ZM104.448 52.0804C105.807 52.0501 107.172 52.0501 108.532 52.0804C111.523 56.9601 114.575 61.7894 117.596 66.6842C118.075 67.4094 118.467 68.1949 119.016 68.8647C117.506 68.9654 115.995 68.8949 114.454 68.905C113.895 67.8978 113.165 66.9712 112.661 65.9288C108.547 65.8483 104.428 65.9288 100.313 65.8885C99.7393 66.8957 99.0342 67.8626 98.4904 68.91C96.9796 68.91 95.4689 68.91 93.9582 68.91C95.1567 66.9209 96.4207 64.967 97.6393 62.9879C97.9163 62.6102 98.1429 62.1973 98.3796 61.7944C98.5659 61.5225 98.7271 61.2304 98.8832 60.9434C98.9285 61.0592 98.9738 61.175 99.0242 61.2908L99.1048 60.9535H98.9235C100.434 58.4355 102.041 55.968 103.572 53.4602C103.813 53.1177 104.02 52.7501 104.241 52.3976L104.438 52.0904L104.448 52.0804ZM103.415 60.8427C103.009 61.4609 102.634 62.0996 102.292 62.7563C105.067 62.716 107.832 62.7563 110.617 62.7563C110.032 61.4923 109.171 60.3693 108.476 59.1607C107.776 58.1183 107.192 56.9852 106.462 55.9781C105.455 57.6197 104.448 59.2413 103.441 60.8578L103.415 60.8427ZM123.921 52.0552C125.533 52.0552 127.149 52.0552 128.761 52.0552C129.863 53.1882 130.997 54.2961 132.084 55.4392C132.24 55.5853 132.396 55.7363 132.543 55.8925C132.689 56.0486 132.734 56.0838 132.835 56.1745C133.207 56.5924 133.615 56.9802 134.018 57.368C134.421 57.7557 134.783 58.1888 135.191 58.5765C137.15 60.5909 139.16 62.5548 141.119 64.5742C141.166 60.4113 141.166 56.2433 141.119 52.0703C142.372 51.9998 143.636 52.0703 144.89 52.0401C144.85 57.655 144.89 63.2699 144.89 68.8848C143.323 68.8848 141.755 68.8848 140.187 68.8848C136.007 64.6447 131.811 60.4163 127.597 56.1996C127.669 56.7725 127.687 57.3507 127.653 57.9269C127.653 61.5729 127.653 65.2238 127.653 68.8748C126.399 68.8748 125.135 68.91 123.901 68.8748C123.962 63.275 123.901 57.6701 123.931 52.0652L123.921 52.0552ZM4.25022 78.2565C6.03794 78.3371 7.84579 78.2162 9.64358 78.2968C13.0075 78.2565 16.3765 78.2968 19.7404 78.2968C20.0476 78.2968 20.3598 78.2666 20.677 78.2565C22.9397 84.9516 26.4932 91.1382 31.1364 96.466C31.7709 97.2113 32.4508 97.9213 33.1507 98.6264C38.0342 103.64 43.8347 107.669 50.2372 110.496C53.3743 111.907 56.6434 113.003 59.9966 113.769C71.6261 116.476 83.8201 115.332 94.7437 110.511C104.748 106.088 113.191 98.7592 118.976 89.4763C121.158 85.987 122.923 82.2534 124.233 78.3522C129.728 78.3119 135.227 78.3522 140.716 78.3522C140.716 78.9917 140.716 79.6313 140.716 80.2708C139.155 80.4773 137.588 80.6284 136.027 80.8348C134.285 81.0262 132.452 81.1017 130.85 81.8772C129.34 82.5873 128.398 84.0729 127.723 85.5433C126.13 89.0126 124.222 92.3284 122.023 95.4487C120.043 98.2292 117.827 100.834 115.401 103.234C115.401 103.31 115.401 103.456 115.401 103.526C115.401 103.466 115.365 103.34 115.35 103.279C104.42 114.162 89.7646 120.485 74.3487 120.97C71.1721 121.071 67.9924 120.915 64.8411 120.502C49.8711 118.603 36.1373 111.22 26.297 99.7795C23.5566 96.5487 21.157 93.0436 19.1361 89.3202C18.3152 87.8094 17.5901 86.208 16.8095 84.657C16.2491 83.4935 15.3411 82.5327 14.2111 81.9075C12.8061 81.1873 11.1896 81.0866 9.67883 80.9003C7.87097 80.7291 6.07822 80.4622 4.27037 80.2859C4.25022 79.6061 4.23512 78.9313 4.25022 78.2565Z" fill="#28283B"></path> </svg> 